<?xml version="1.0" standalone="no"?>
<!DOCTYPE svg PUBLIC "-//W3C//DTD SVG 20010904//EN"
 "http://www.w3.org/TR/2001/REC-SVG-20010904/DTD/svg10.dtd">
<svg version="1.0" xmlns="http://www.w3.org/2000/svg"
 width="564.000000pt" height="564.000000pt" viewBox="0 0 564.000000 564.000000"
 preserveAspectRatio="xMidYMid meet">
<metadata>
Created by potrace 1.14, written by Peter Selinger 2001-2017
</metadata>
<g transform="translate(0.000000,564.000000) scale(0.100000,-0.100000)"
fill="#000000" stroke="none">
<path d="M2714 4818 c-42 -73 -82 -143 -88 -155 -6 -13 -15 -23 -19 -23 -5 0
-6 -4 -2 -9 3 -5 1 -12 -5 -16 -16 -10 -12 -28 13 -57 12 -14 29 -35 37 -45
33 -41 216 -258 230 -274 8 -9 31 -36 50 -60 19 -24 45 -54 58 -67 12 -13 22
-25 22 -28 0 -3 6 -11 13 -18 20 -22 57 -65 163 -191 128 -154 135 -162 157
-188 75 -89 106 -124 129 -151 24 -27 34 -46 25 -46 -4 0 -95 17 -137 25 -14
3 -65 12 -115 21 -49 8 -101 17 -115 20 -14 2 -38 7 -55 9 -16 3 -41 7 -55 10
-14 3 -54 10 -90 15 -69 10 -81 12 -205 36 -44 8 -96 17 -115 20 -19 2 -46 7
-60 10 -14 3 -34 7 -45 9 -11 2 -47 8 -80 14 -106 18 -120 21 -145 26 -14 3
-38 7 -55 10 -40 6 -85 14 -112 20 -15 4 -23 -1 -28 -15 -3 -11 -11 -20 -16
-20 -5 0 -9 -4 -9 -10 0 -5 -25 -50 -55 -101 -30 -50 -55 -93 -55 -95 0 -2
-14 -27 -31 -55 -35 -55 -31 -68 21 -70 14 0 32 -2 40 -4 29 -6 75 -14 125
-20 28 -3 57 -8 65 -10 8 -2 33 -6 55 -10 22 -3 78 -12 125 -20 47 -7 103 -17
125 -20 22 -3 51 -7 65 -10 14 -2 43 -6 65 -9 22 -4 51 -8 65 -11 14 -2 41 -7
60 -9 19 -3 44 -7 55 -10 11 -2 52 -9 90 -15 39 -6 88 -13 110 -17 22 -3 49
-7 60 -9 11 -1 65 -10 120 -19 144 -23 146 -23 195 -31 25 -4 57 -9 73 -11 15
-2 39 -6 55 -9 15 -3 59 -10 97 -15 39 -6 77 -12 85 -15 14 -4 79 -14 140 -20
14 -2 25 -4 25 -5 0 -1 9 -3 20 -4 51 -7 112 -16 135 -21 35 -7 197 -33 245
-39 47 -7 91 -14 123 -21 12 -3 22 -2 22 1 0 6 -50 71 -85 111 -5 6 -21 26
-35 44 -14 18 -30 37 -35 43 -6 6 -33 40 -60 76 -28 36 -57 72 -65 80 -9 8
-49 58 -90 110 -41 52 -77 97 -81 100 -3 3 -115 140 -248 305 -134 165 -250
309 -259 320 -10 11 -35 43 -57 70 -22 28 -42 52 -46 55 -3 3 -35 43 -73 90
-37 47 -75 94 -84 105 -9 11 -35 42 -57 70 -22 27 -48 59 -57 70 -10 11 -70
85 -134 165 -64 80 -117 146 -119 148 -2 2 -38 -57 -81 -130z"/>
<path d="M1774 3182 c-6 -4 -19 -23 -29 -42 -10 -19 -30 -53 -44 -75 -14 -22
-26 -42 -26 -45 0 -3 -10 -21 -23 -41 -12 -20 -22 -41 -22 -48 0 -6 -4 -11
-10 -11 -5 0 -10 -6 -10 -12 0 -7 -9 -24 -20 -38 -24 -31 -25 -48 -2 -47 15 1
83 -9 137 -19 11 -3 49 -9 85 -14 36 -5 76 -12 90 -14 22 -4 60 -10 143 -22
15 -2 39 -6 55 -9 15 -3 47 -7 72 -11 25 -3 52 -7 60 -9 8 -3 33 -7 55 -10 22
-3 67 -11 100 -17 33 -5 76 -12 95 -13 19 -2 35 -4 35 -5 0 -3 39 -10 85 -15
79 -10 97 -13 126 -19 16 -3 47 -8 69 -11 22 -3 51 -8 65 -10 14 -3 42 -8 64
-11 21 -3 48 -8 60 -10 11 -3 35 -6 52 -8 34 -4 108 -16 139 -23 11 -2 37 -6
57 -8 21 -2 52 -7 70 -11 18 -4 44 -8 58 -9 14 -2 43 -6 65 -10 22 -3 54 -8
70 -11 17 -2 43 -7 59 -10 16 -4 43 -7 60 -9 17 -1 42 -5 56 -8 14 -4 45 -9
70 -12 94 -13 106 -15 160 -25 57 -10 121 -20 154 -23 11 -1 25 9 35 28 9 17
41 73 72 125 104 178 119 207 106 208 -19 1 -86 11 -147 22 -30 5 -75 12 -100
16 -25 3 -54 8 -65 10 -11 2 -36 5 -55 8 -81 12 -156 24 -190 31 -14 3 -43 7
-65 10 -22 2 -53 7 -70 10 -16 3 -41 7 -55 9 -14 3 -25 5 -25 6 0 1 -13 3 -30
5 -56 6 -100 13 -200 30 -27 5 -57 9 -195 30 -57 9 -83 14 -110 19 -14 3 -43
7 -66 10 -22 2 -56 7 -75 10 -82 14 -236 39 -311 50 -21 3 -53 8 -70 11 -18 3
-46 7 -63 10 -16 2 -43 7 -60 9 -16 3 -43 7 -60 10 -16 3 -41 7 -55 10 -32 6
-90 15 -143 21 -23 3 -53 7 -67 10 -14 3 -41 8 -60 11 -19 3 -59 9 -89 14 -30
6 -55 10 -55 10 -1 0 -6 -4 -12 -8z"/>
<path d="M1456 2605 c-3 -8 -2 -15 3 -15 4 0 32 -30 62 -67 30 -38 60 -74 67
-81 7 -8 24 -30 39 -50 15 -21 40 -49 55 -64 15 -16 25 -28 22 -28 -5 0 32
-46 101 -127 6 -6 21 -26 35 -45 14 -18 35 -43 48 -56 12 -13 22 -27 22 -32 0
-6 9 -15 20 -22 11 -7 20 -17 20 -21 0 -5 6 -14 13 -22 6 -7 26 -30 43 -51 18
-22 44 -52 58 -67 14 -15 26 -30 26 -32 0 -3 51 -68 114 -144 63 -77 119 -146
125 -153 5 -7 26 -32 45 -54 20 -23 36 -47 36 -53 0 -7 5 -9 10 -6 6 3 10 1
10 -6 0 -6 16 -30 36 -53 64 -74 70 -81 100 -121 16 -22 34 -44 40 -50 5 -5
28 -32 49 -60 22 -27 44 -55 50 -61 5 -6 21 -26 35 -44 14 -18 33 -42 43 -54
10 -11 28 -34 40 -49 12 -16 27 -34 32 -40 6 -7 48 -58 93 -114 46 -57 87
-103 92 -103 5 0 32 42 62 93 29 50 58 101 65 112 7 11 15 27 20 35 4 8 20 37
35 63 l28 48 -24 27 c-14 15 -51 59 -83 97 -32 39 -66 77 -75 86 -10 9 -18 20
-18 23 0 4 -6 13 -12 20 -7 7 -31 34 -53 60 -22 27 -52 61 -67 77 -16 16 -28
34 -28 39 0 4 -3 10 -8 12 -4 2 -43 46 -87 98 -44 52 -88 104 -99 115 -10 11
-27 34 -37 50 -10 17 -19 26 -19 20 0 -5 -8 2 -18 17 -10 15 -34 45 -55 67
-20 22 -37 44 -37 50 0 5 -4 11 -8 13 -10 3 -192 215 -192 222 0 7 74 2 80 -6
3 -3 25 -8 50 -11 25 -3 70 -11 100 -17 30 -6 71 -13 90 -16 19 -2 46 -7 60
-11 14 -3 35 -7 47 -8 13 -2 42 -7 65 -11 24 -4 52 -8 63 -10 26 -4 60 -12 60
-14 0 -1 16 -3 35 -6 19 -2 62 -9 95 -15 33 -6 69 -13 80 -14 11 -2 34 -6 50
-9 59 -12 100 -19 120 -22 11 -1 34 -5 50 -8 17 -3 71 -12 120 -21 95 -15 134
-22 202 -34 41 -7 43 -6 66 28 13 20 27 43 30 51 4 8 21 38 38 65 17 28 35 62
42 78 6 15 15 27 19 27 4 0 8 5 8 10 0 6 11 28 25 50 14 22 22 40 18 41 -5 0
-17 3 -28 5 -11 2 -33 6 -50 8 -16 3 -46 7 -65 10 -19 4 -48 8 -65 11 -31 5
-66 10 -125 20 -19 3 -48 8 -65 10 -16 2 -43 6 -60 9 -16 3 -50 8 -75 12 -47
6 -68 9 -109 18 -12 3 -42 8 -65 10 -22 3 -68 10 -101 16 -33 6 -73 13 -90 15
-16 2 -46 6 -65 10 -44 7 -62 10 -185 30 -55 9 -111 18 -125 20 -14 2 -45 7
-70 11 -25 3 -56 9 -70 11 -14 2 -38 6 -55 7 -16 2 -41 6 -55 9 -14 4 -43 9
-65 12 -22 3 -78 12 -125 20 -123 20 -149 24 -205 31 -27 3 -53 8 -57 10 -3 2
-28 7 -55 10 -26 3 -59 7 -73 10 -14 3 -34 7 -45 9 -11 2 -36 6 -55 9 -19 2
-57 8 -85 12 -27 3 -59 8 -70 11 -11 2 -36 6 -55 9 -19 2 -42 7 -51 9 -9 3
-19 -1 -23 -10z"/>
</g>
</svg>
