<svg width="36" height="36" viewBox="0 0 36 36" fill="none" xmlns="http://www.w3.org/2000/svg">
<path d="M21.6309 31.0407V31.7699H22.36H29.6517C30.8598 31.7699 31.8392 30.7905 31.8392 29.5824V6.24902C31.8392 5.04092 30.8598 4.06152 29.6517 4.06152H6.31836C5.11024 4.06152 4.13086 5.04091 4.13086 6.24902V29.5824C4.13086 30.7905 5.11025 31.7699 6.31836 31.7699H17.985H18.7142V31.0407V20.8322V20.103H17.985H15.0684C14.6656 20.103 14.3392 19.7766 14.3392 19.3739V17.9155C14.3392 17.5128 14.6657 17.1864 15.0684 17.1864H17.985H18.7142V16.4572V12.8114C18.7142 11.0965 20.5016 8.83458 23.8184 8.83458L23.8199 8.83458L23.8311 8.83467C23.8417 8.83477 23.8585 8.83498 23.8812 8.83542C23.9266 8.83631 23.9954 8.83812 24.0847 8.84183C24.2634 8.84925 24.5236 8.86422 24.842 8.89438C25.481 8.95491 26.3443 9.07565 27.2509 9.31491L27.2509 9.31491C27.3609 9.34395 27.4642 9.45644 27.4642 9.62351V10.6239C27.4642 11.0266 27.1377 11.3531 26.735 11.3531H23.8184C23.2166 11.3531 22.6759 11.6466 22.3002 12.0224C21.9244 12.3981 21.6309 12.9388 21.6309 13.5406V16.4572V17.1864H22.36H26.3798C26.6286 17.1864 26.8043 17.4301 26.7256 17.6663L26.0796 19.6043C25.9803 19.9023 25.7016 20.103 25.3878 20.103H22.36H21.6309V20.8322V31.0407ZM29.6517 2.60319C31.6653 2.60319 33.2975 4.23548 33.2975 6.24902V29.5824C33.2975 31.596 31.6653 33.2282 29.6517 33.2282H6.31836C4.30482 33.2282 2.67253 31.596 2.67253 29.5824V6.24902C2.67253 4.23549 4.30483 2.60319 6.31836 2.60319H29.6517Z" fill="white" stroke="white" stroke-width="1.45833"/>
</svg>
