<svg width="36" height="36" viewBox="0 0 36 36" fill="none" xmlns="http://www.w3.org/2000/svg">
<path d="M13.9704 24.3821L13.9705 24.3821L24.1788 18.5487L24.1789 18.5487C24.406 18.4189 24.5462 18.1774 24.5462 17.9157C24.5462 17.654 24.406 17.4125 24.1789 17.2827L24.1788 17.2827L13.9705 11.4493C13.7448 11.3203 13.4676 11.3212 13.2427 11.4517L13.9704 24.3821ZM13.9704 24.3821C13.7448 24.511 13.4676 24.5101 13.2427 24.3797L13.9704 24.3821ZM21.2394 18.5488L22.3473 17.9157L21.2394 17.2826L15.4288 13.9622L14.3379 13.3388V14.5953V21.236V22.4925L15.4288 21.8691L21.2394 18.5488ZM12.8796 12.0824C12.8796 11.8224 13.0179 11.5822 13.2427 11.4517L13.2427 24.3796C13.0179 24.2492 12.8796 24.009 12.8796 23.749V12.0824Z" fill="white" stroke="white" stroke-width="1.45833"/>
<path d="M3.91869 6.7735C4.73204 6.18257 5.75178 5.85736 7.29642 5.69001C8.85471 5.52118 10.859 5.52018 13.6094 5.52018H22.3594C25.1098 5.52018 27.114 5.52118 28.6723 5.69001C30.217 5.85736 31.2367 6.18257 32.05 6.7735L32.05 6.77351C32.6072 7.17829 33.0971 7.66823 33.5019 8.22534C34.0928 9.03868 34.418 10.0584 34.5854 11.6031C34.7542 13.1613 34.7552 15.1656 34.7552 17.916C34.7552 20.6664 34.7542 22.6707 34.5854 24.229C34.418 25.7736 34.0928 26.7933 33.5019 27.6067L34.0918 28.0352L33.5019 27.6067C33.0971 28.1638 32.6072 28.6538 32.05 29.0585L32.05 29.0585C31.2367 29.6495 30.217 29.9747 28.6723 30.142C27.114 30.3108 25.1098 30.3118 22.3594 30.3118H13.6094C10.859 30.3118 8.85471 30.3108 7.29642 30.142C5.75177 29.9747 4.73204 29.6495 3.91869 29.0585C3.36159 28.6538 2.87165 28.1638 2.46688 27.6067L2.46686 27.6066C1.87594 26.7933 1.55072 25.7736 1.38337 24.229C1.21454 22.6707 1.21354 20.6664 1.21354 17.916C1.21354 15.1656 1.21454 13.1613 1.38337 11.6031C1.55072 10.0584 1.87594 9.03868 2.46687 8.22534C2.87164 7.66822 3.36157 7.17828 3.91869 6.7735ZM3.91869 6.7735L3.4901 6.18359L3.91869 6.7735ZM31.193 7.9534L31.1929 7.95333C30.6696 7.5731 29.9358 7.29377 28.5152 7.13986C27.0536 6.98151 25.1417 6.97852 22.3594 6.97852H13.6094C10.827 6.97852 8.91512 6.98151 7.45351 7.13986C6.03295 7.29377 5.29921 7.57311 4.77589 7.95332L4.77588 7.95333C4.34257 8.26815 3.96151 8.64921 3.64669 9.08252L3.64668 9.08253C3.26647 9.60585 2.98713 10.3396 2.83322 11.7601C2.67487 13.2218 2.67188 15.1337 2.67188 17.916C2.67188 20.6984 2.67487 22.6102 2.83322 24.0719C2.98713 25.4925 3.26646 26.2263 3.64669 26.7496L3.64675 26.7497C3.96153 27.1828 4.34253 27.5638 4.77578 27.8787L4.77599 27.8789C5.29926 28.2589 6.03292 28.5382 7.45345 28.6922L7.45349 28.6922C8.91512 28.8506 10.827 28.8535 13.6094 28.8535H22.3594C25.1417 28.8535 27.0536 28.8506 28.5152 28.6922L28.5153 28.6922C29.9359 28.5382 30.6696 28.2589 31.1928 27.8788L31.1931 27.8786C31.6262 27.5638 32.0072 27.1828 32.322 26.7498L32.3222 26.7495C32.7023 26.2262 32.9816 25.4925 33.1356 24.0719C33.294 22.6102 33.2969 20.6983 33.2969 17.916C33.2969 15.1337 33.294 13.2218 33.1356 11.7601C32.9816 10.3396 32.7022 9.6059 32.3222 9.08263L32.3221 9.08242C32.0072 8.64917 31.6261 8.26817 31.193 7.9534Z" fill="white" stroke="white" stroke-width="1.45833"/>
</svg>
