<svg height="800" viewBox="0 0 24 24" width="800" xmlns="http://www.w3.org/2000/svg" xmlns:xlink="http://www.w3.org/1999/xlink"><defs><path id="a" d="m3.41421356 4h9.58725724c.5514725 0 .9985292.44771525.9985292 1s-.4470567 1-.9985292 1h-9.58725724l2.29289322 2.29289322c.39052429.39052429.39052429 1.02368927 0 1.41421356-.39052429.39052432-1.02368927.39052432-1.41421356 0l-4-4c-.39052429-.39052429-.39052429-1.02368927 0-1.41421356l4-4c.39052429-.39052429 1.02368927-.39052429 1.41421356 0s.39052429 1.02368927 0 1.41421356z"/><mask id="b" fill="#02a5e0"/><mask id="c" fill="#02a5e0"><use fill="#02a5e0" fill-rule="evenodd" xlink:href="#a"/></mask></defs><g fill="#02a5e0" fill-rule="evenodd" transform="matrix(0 1 1 0 7 5)"><g mask="url(#b)" transform="translate(3 1)"><path d="m0 0h24v24h-24z" transform="translate(-8 -8)"/></g><use fill-rule="nonzero" xlink:href="#a"/><g mask="url(#c)"><path d="m0 0h24v24h-24z" transform="translate(-5 -7)"/></g></g></svg>